# xmcd
#
# Track frame offsets:
#       150
#       17492
#       33595
#       45865
#       62910
#       79650
#       93030
#       110285
#       124047
#       142007
#       164177
#       185412
#
# Disc length: 2637 seconds
#
# Revision: 1
# Processed by: cddbd v1.4PL0 Copyright (c) Steve Scherf et al.
# Submitted via: CD-DA_X-Tractor v0.23
#
DISCID=970a4b0c
DTITLE=Beccy Cole - Wild At Heart
DYEAR=2001
DGENRE=Country
TTITLE0=This Heart
TTITLE1=Too Strong To Break
TTITLE2=Wild At Heart
TTITLE3=Never Sees Anything Through
TTITLE4=Keep On Rockin'
TTITLE5=Ordinary Heart
TTITLE6=Storm In A D Cup
TTITLE7=Friends For A Lifetime
TTITLE8=Mother Knows Best
TTITLE9=Emily
TTITLE10=Lazy Bones
TTITLE11=Do I Ever Cross Your Mind
EXTD=
EXTT0=
EXTT1=
EXTT2=
EXTT3=
EXTT4=
EXTT5=
EXTT6=
EXTT7=
EXTT8=
EXTT9=
EXTT10=
EXTT11=
PLAYORDER=
